<svg width="92" height="46" viewBox="0 0 92 46" fill="none" xmlns="http://www.w3.org/2000/svg">
<path d="M1 1V0.5H0.5V1H1ZM91 1H91.5V0.5H91V1ZM1 1.5H91V0.5H1V1.5ZM90.5 1V46H91.5V1H90.5ZM1.5 46V1H0.5V46H1.5Z" fill="#69CE31"/>
<path d="M18.3 23.22C17.6067 23.22 16.9867 23.16 16.44 23.04C15.8933 22.92 15.2933 22.76 14.64 22.56C14.24 22.4133 13.94 22.3333 13.74 22.32L13.9 18.7H15.18L15.52 21.3C15.7467 21.5133 16.1133 21.7067 16.62 21.88C17.14 22.04 17.7067 22.12 18.32 22.12C19.3333 22.12 20.1 21.8933 20.62 21.44C21.1533 20.9867 21.42 20.36 21.42 19.56C21.42 19.04 21.2733 18.5933 20.98 18.22C20.7 17.8467 20.32 17.5267 19.84 17.26C19.3733 16.9933 18.7267 16.68 17.9 16.32C17.1533 15.9867 16.5 15.6467 15.94 15.3C15.3933 14.9533 14.9133 14.4933 14.5 13.92C14.1 13.3333 13.9 12.6333 13.9 11.82C13.9 11.0867 14.0933 10.4333 14.48 9.86C14.88 9.27333 15.4467 8.81333 16.18 8.48C16.9267 8.14667 17.7933 7.98 18.78 7.98C19.3933 7.98 19.9333 8.02667 20.4 8.12C20.88 8.21333 21.42 8.34 22.02 8.5C22.2867 8.59333 22.5133 8.65333 22.7 8.68L22.58 12.04H21.36L20.96 9.58C20.8267 9.44667 20.5467 9.32 20.12 9.2C19.7067 9.08 19.2533 9.02 18.76 9.02C17.84 9.02 17.14 9.21333 16.66 9.6C16.1933 9.98667 15.96 10.5467 15.96 11.28C15.96 11.8133 16.1 12.26 16.38 12.62C16.6733 12.98 17.0333 13.2867 17.46 13.54C17.8867 13.7933 18.5667 14.14 19.5 14.58C20.3667 14.9933 21.0733 15.3667 21.62 15.7C22.1667 16.0333 22.6333 16.4733 23.02 17.02C23.42 17.5533 23.62 18.1933 23.62 18.94C23.62 19.6467 23.42 20.3267 23.02 20.98C22.6333 21.6333 22.0333 22.1733 21.22 22.6C20.42 23.0133 19.4467 23.22 18.3 23.22ZM26.355 8.08L24.675 7.86V7L27.935 6.62H27.975L28.415 6.92V11.56L28.335 13.26C28.7617 12.8733 29.3483 12.5067 30.095 12.16C30.8417 11.8133 31.595 11.64 32.355 11.64C33.195 11.64 33.8483 11.8 34.315 12.12C34.7817 12.44 35.1083 12.9333 35.295 13.6C35.4817 14.2533 35.575 15.14 35.575 16.26V21.84L36.975 22.02V23H32.195V22.02L33.495 21.84V16.24C33.495 15.4533 33.4417 14.84 33.335 14.4C33.2283 13.9467 33.0283 13.6133 32.735 13.4C32.4417 13.1733 32.0017 13.06 31.415 13.06C30.935 13.06 30.4217 13.18 29.875 13.42C29.3283 13.66 28.8483 13.94 28.435 14.26V21.84L29.815 22.02V23H25.155V22.02L26.355 21.86V8.08ZM38.4586 20C38.4586 18.7467 39.0853 17.8267 40.3386 17.24C41.5919 16.64 43.1786 16.32 45.0986 16.28V15.72C45.0986 15.0933 45.0319 14.6 44.8986 14.24C44.7653 13.88 44.5319 13.62 44.1986 13.46C43.8786 13.2867 43.4186 13.2 42.8186 13.2C42.1386 13.2 41.5253 13.3 40.9786 13.5C40.4453 13.6867 39.9119 13.92 39.3786 14.2L38.8786 13.16C39.0519 13.0133 39.3719 12.82 39.8386 12.58C40.3053 12.34 40.8453 12.1267 41.4586 11.94C42.0719 11.7533 42.6853 11.66 43.2986 11.66C44.2453 11.66 44.9919 11.7933 45.5386 12.06C46.0986 12.3133 46.4986 12.7267 46.7386 13.3C46.9786 13.8733 47.0986 14.64 47.0986 15.6V22.02H48.2786V22.9C48.0119 22.9667 47.6719 23.0333 47.2586 23.1C46.8586 23.1667 46.5053 23.2 46.1986 23.2C45.8253 23.2 45.5719 23.14 45.4386 23.02C45.3053 22.9133 45.2386 22.6667 45.2386 22.28V21.62C44.8386 22.02 44.3453 22.3867 43.7586 22.72C43.1853 23.0533 42.5319 23.22 41.7986 23.22C40.8386 23.22 40.0386 22.9467 39.3986 22.4C38.7719 21.84 38.4586 21.04 38.4586 20ZM42.6586 21.86C43.0053 21.86 43.4053 21.7533 43.8586 21.54C44.3119 21.3267 44.7253 21.0733 45.0986 20.78V17.34C43.6453 17.34 42.5453 17.5667 41.7986 18.02C41.0653 18.46 40.6986 19.04 40.6986 19.76C40.6986 20.48 40.8719 21.0133 41.2186 21.36C41.5786 21.6933 42.0586 21.86 42.6586 21.86ZM60.4895 17.06C60.4895 18.1933 60.2562 19.2333 59.7895 20.18C59.3229 21.1133 58.6562 21.8533 57.7895 22.4C56.9229 22.9467 55.9095 23.22 54.7495 23.22C54.4295 23.22 54.0829 23.1933 53.7095 23.14C53.3362 23.0867 53.0362 23.02 52.8095 22.94L52.8695 24.62V26.64L54.9495 26.86V27.84H49.3695V26.86L50.8095 26.64V13.44L49.3495 13.08V12L52.1895 11.64H52.2295L52.6495 12V13.18C53.0495 12.74 53.5429 12.3667 54.1295 12.06C54.7295 11.7533 55.3962 11.6 56.1295 11.6C56.9162 11.6 57.6362 11.7933 58.2895 12.18C58.9562 12.5667 59.4895 13.1667 59.8895 13.98C60.2895 14.7933 60.4895 15.82 60.4895 17.06ZM55.3095 13C54.8029 13 54.3295 13.1067 53.8895 13.32C53.4495 13.5333 53.1095 13.7667 52.8695 14.02V21.56C52.9629 21.72 53.1962 21.8667 53.5695 22C53.9562 22.12 54.3762 22.18 54.8295 22.18C55.8562 22.18 56.6829 21.7733 57.3095 20.96C57.9495 20.1467 58.2695 18.92 58.2695 17.28C58.2695 15.84 57.9895 14.7667 57.4295 14.06C56.8829 13.3533 56.1762 13 55.3095 13ZM67.1481 23.22C65.5348 23.22 64.3015 22.6933 63.4481 21.64C62.6081 20.5867 62.1881 19.18 62.1881 17.42C62.1881 16.26 62.4081 15.24 62.8481 14.36C63.2881 13.48 63.9015 12.8 64.6881 12.32C65.4881 11.84 66.3948 11.6 67.4081 11.6C68.6481 11.6 69.6081 11.9467 70.2881 12.64C70.9815 13.32 71.3481 14.3 71.3881 15.58C71.3881 16.3933 71.3415 17.0133 71.2481 17.44H64.3681C64.3948 18.76 64.7015 19.8267 65.2881 20.64C65.8748 21.44 66.7081 21.84 67.7881 21.84C68.3215 21.84 68.8748 21.7467 69.4481 21.56C70.0348 21.36 70.4881 21.1267 70.8081 20.86L71.1881 21.74C70.8015 22.14 70.2281 22.4867 69.4681 22.78C68.7081 23.0733 67.9348 23.22 67.1481 23.22ZM69.1881 16.38C69.2281 16.1 69.2481 15.8133 69.2481 15.52C69.2348 14.6533 69.0481 13.9733 68.6881 13.48C68.3415 12.9733 67.7881 12.72 67.0281 12.72C66.2548 12.72 65.6348 13 65.1681 13.56C64.7148 14.12 64.4548 15.06 64.3881 16.38H69.1881ZM74.567 8.08L72.947 7.86V7L76.167 6.62H76.207L76.647 6.92V21.86L78.347 22.02V23H72.947V22.02L74.567 21.84V8.08Z" fill="#353535"/>
<path d="M18.915 40V32.8418H21.6006C22.1475 32.8418 22.5853 32.915 22.9141 33.0615C23.2461 33.2048 23.5049 33.4277 23.6904 33.7305C23.8792 34.0299 23.9736 34.3441 23.9736 34.6729C23.9736 34.9788 23.8906 35.2669 23.7246 35.5371C23.5586 35.8073 23.3079 36.0254 22.9727 36.1914C23.4056 36.3184 23.7376 36.5348 23.9688 36.8408C24.2031 37.1468 24.3203 37.5081 24.3203 37.9248C24.3203 38.2601 24.2487 38.5726 24.1055 38.8623C23.9655 39.1488 23.7913 39.3701 23.583 39.5264C23.3747 39.6826 23.1126 39.8014 22.7969 39.8828C22.4844 39.9609 22.1003 40 21.6445 40H18.915ZM19.8623 35.8496H21.4102C21.8301 35.8496 22.1312 35.8219 22.3135 35.7666C22.5544 35.695 22.735 35.5762 22.8555 35.4102C22.9792 35.2441 23.041 35.0358 23.041 34.7852C23.041 34.5475 22.984 34.3392 22.8701 34.1602C22.7562 33.9779 22.5934 33.8542 22.3818 33.7891C22.1702 33.7207 21.8073 33.6865 21.293 33.6865H19.8623V35.8496ZM19.8623 39.1553H21.6445C21.9505 39.1553 22.1654 39.1439 22.2891 39.1211C22.5072 39.082 22.6895 39.0169 22.8359 38.9258C22.9824 38.8346 23.1029 38.7028 23.1973 38.5303C23.2917 38.3545 23.3389 38.1527 23.3389 37.9248C23.3389 37.6579 23.2705 37.4268 23.1338 37.2314C22.9971 37.0329 22.8066 36.8945 22.5625 36.8164C22.3216 36.735 21.9733 36.6943 21.5176 36.6943H19.8623V39.1553ZM29.0615 38.3301L29.9697 38.4424C29.8265 38.973 29.5612 39.3848 29.1738 39.6777C28.7865 39.9707 28.2917 40.1172 27.6895 40.1172C26.931 40.1172 26.3288 39.8844 25.8828 39.4189C25.4401 38.9502 25.2188 38.2943 25.2188 37.4512C25.2188 36.5788 25.4434 35.9017 25.8926 35.4199C26.3418 34.9382 26.9245 34.6973 27.6406 34.6973C28.334 34.6973 28.9004 34.9333 29.3398 35.4053C29.7793 35.8773 29.999 36.5413 29.999 37.3975C29.999 37.4495 29.9974 37.5277 29.9941 37.6318H26.127C26.1595 38.2015 26.3206 38.6377 26.6104 38.9404C26.9001 39.2432 27.2614 39.3945 27.6943 39.3945C28.0166 39.3945 28.2917 39.3099 28.5195 39.1406C28.7474 38.9714 28.9281 38.7012 29.0615 38.3301ZM26.1758 36.9092H29.0713C29.0322 36.473 28.9215 36.1458 28.7393 35.9277C28.4593 35.5892 28.0964 35.4199 27.6504 35.4199C27.2467 35.4199 26.9066 35.555 26.6299 35.8252C26.3564 36.0954 26.2051 36.4567 26.1758 36.9092ZM34.4619 39.3604C34.1364 39.637 33.8223 39.8324 33.5195 39.9463C33.2201 40.0602 32.8978 40.1172 32.5527 40.1172C31.9831 40.1172 31.5452 39.9788 31.2393 39.7021C30.9333 39.4222 30.7803 39.0658 30.7803 38.6328C30.7803 38.3789 30.8372 38.1478 30.9512 37.9395C31.0684 37.7279 31.2197 37.5586 31.4053 37.4316C31.5941 37.3047 31.8057 37.2087 32.04 37.1436C32.2126 37.098 32.473 37.054 32.8213 37.0117C33.5309 36.9271 34.0534 36.8262 34.3887 36.709C34.3919 36.5885 34.3936 36.512 34.3936 36.4795C34.3936 36.1214 34.3105 35.8691 34.1445 35.7227C33.9199 35.5241 33.5863 35.4248 33.1436 35.4248C32.7301 35.4248 32.4242 35.498 32.2256 35.6445C32.0303 35.7878 31.8854 36.0433 31.791 36.4111L30.9316 36.2939C31.0098 35.9261 31.1383 35.6299 31.3174 35.4053C31.4964 35.1774 31.7552 35.0033 32.0938 34.8828C32.4323 34.7591 32.8245 34.6973 33.2705 34.6973C33.7132 34.6973 34.0729 34.7493 34.3496 34.8535C34.6263 34.9577 34.8298 35.0895 34.96 35.249C35.0902 35.4053 35.1813 35.6038 35.2334 35.8447C35.2627 35.9945 35.2773 36.2646 35.2773 36.6553V37.8271C35.2773 38.6442 35.2952 39.1618 35.3311 39.3799C35.3701 39.5947 35.445 39.8014 35.5557 40H34.6377C34.5465 39.8177 34.488 39.6045 34.4619 39.3604ZM34.3887 37.3975C34.0697 37.5277 33.5911 37.6383 32.9531 37.7295C32.5918 37.7816 32.3363 37.8402 32.1865 37.9053C32.0368 37.9704 31.9212 38.0664 31.8398 38.1934C31.7585 38.3171 31.7178 38.4554 31.7178 38.6084C31.7178 38.8428 31.8057 39.0381 31.9814 39.1943C32.1605 39.3506 32.4209 39.4287 32.7627 39.4287C33.1012 39.4287 33.4023 39.3555 33.666 39.209C33.9297 39.0592 34.1234 38.8558 34.2471 38.5986C34.3415 38.4001 34.3887 38.1071 34.3887 37.7197V37.3975ZM40.043 40V39.2383C39.6393 39.8242 39.0908 40.1172 38.3975 40.1172C38.0915 40.1172 37.805 40.0586 37.5381 39.9414C37.2744 39.8242 37.0775 39.6777 36.9473 39.502C36.8203 39.3229 36.7308 39.1048 36.6787 38.8477C36.6429 38.6751 36.625 38.4017 36.625 38.0273V34.8145H37.5039V37.6904C37.5039 38.1494 37.5218 38.4587 37.5576 38.6182C37.613 38.8493 37.7301 39.0316 37.9092 39.165C38.0882 39.2952 38.3096 39.3604 38.5732 39.3604C38.8369 39.3604 39.0843 39.2936 39.3154 39.1602C39.5465 39.0234 39.7093 38.8395 39.8037 38.6084C39.9014 38.374 39.9502 38.0355 39.9502 37.5928V34.8145H40.8291V40H40.043ZM44.1299 39.2139L44.2568 39.9902C44.0094 40.0423 43.7881 40.0684 43.5928 40.0684C43.2738 40.0684 43.0264 40.0179 42.8506 39.917C42.6748 39.8161 42.5511 39.6842 42.4795 39.5215C42.4079 39.3555 42.3721 39.0088 42.3721 38.4814V35.498H41.7275V34.8145H42.3721V33.5303L43.2461 33.0029V34.8145H44.1299V35.498H43.2461V38.5303C43.2461 38.7809 43.2607 38.9421 43.29 39.0137C43.3226 39.0853 43.373 39.1423 43.4414 39.1846C43.513 39.2269 43.6139 39.248 43.7441 39.248C43.8418 39.248 43.9704 39.2367 44.1299 39.2139ZM44.9551 41.9971L44.8574 41.1719C45.0495 41.224 45.2171 41.25 45.3604 41.25C45.5557 41.25 45.7119 41.2174 45.8291 41.1523C45.9463 41.0872 46.0423 40.9961 46.1172 40.8789C46.1725 40.791 46.262 40.5729 46.3857 40.2246C46.402 40.1758 46.4281 40.1042 46.4639 40.0098L44.4961 34.8145H45.4434L46.5225 37.8174C46.6624 38.1982 46.7878 38.5986 46.8984 39.0186C46.9993 38.6149 47.1198 38.221 47.2598 37.8369L48.3682 34.8145H49.2471L47.2744 40.0879C47.0628 40.6576 46.8984 41.0498 46.7812 41.2646C46.625 41.5544 46.446 41.766 46.2441 41.8994C46.0423 42.0361 45.8014 42.1045 45.5215 42.1045C45.3522 42.1045 45.1634 42.0687 44.9551 41.9971ZM52.4258 38.4521L53.2949 38.3154C53.3438 38.6637 53.4788 38.9307 53.7002 39.1162C53.9248 39.3018 54.2373 39.3945 54.6377 39.3945C55.0413 39.3945 55.3408 39.3132 55.5361 39.1504C55.7314 38.9844 55.8291 38.7907 55.8291 38.5693C55.8291 38.3708 55.7428 38.2145 55.5703 38.1006C55.4499 38.0225 55.1504 37.9232 54.6719 37.8027C54.0273 37.64 53.5798 37.5 53.3291 37.3828C53.0817 37.2624 52.8929 37.098 52.7627 36.8896C52.6357 36.6781 52.5723 36.4453 52.5723 36.1914C52.5723 35.9603 52.6243 35.7471 52.7285 35.5518C52.8359 35.3532 52.9808 35.1888 53.1631 35.0586C53.2998 34.9577 53.4854 34.873 53.7197 34.8047C53.9574 34.7331 54.2113 34.6973 54.4814 34.6973C54.8883 34.6973 55.2448 34.7559 55.5508 34.873C55.86 34.9902 56.0879 35.1497 56.2344 35.3516C56.3809 35.5501 56.4818 35.8171 56.5371 36.1523L55.6777 36.2695C55.6387 36.0026 55.5247 35.7943 55.3359 35.6445C55.1504 35.4948 54.8867 35.4199 54.5449 35.4199C54.1413 35.4199 53.8532 35.4867 53.6807 35.6201C53.5081 35.7536 53.4219 35.9098 53.4219 36.0889C53.4219 36.2028 53.4577 36.3053 53.5293 36.3965C53.6009 36.4909 53.7132 36.569 53.8662 36.6309C53.9541 36.6634 54.2129 36.7383 54.6426 36.8555C55.2643 37.0215 55.6973 37.1582 55.9414 37.2656C56.1888 37.3698 56.3825 37.5228 56.5225 37.7246C56.6624 37.9264 56.7324 38.1771 56.7324 38.4766C56.7324 38.7695 56.6462 39.0462 56.4736 39.3066C56.3044 39.5638 56.0586 39.764 55.7363 39.9072C55.4141 40.0472 55.0495 40.1172 54.6426 40.1172C53.9688 40.1172 53.4544 39.9772 53.0996 39.6973C52.748 39.4173 52.5234 39.0023 52.4258 38.4521ZM57.7773 40V32.8418H58.6562V35.4102C59.0664 34.9349 59.584 34.6973 60.209 34.6973C60.5931 34.6973 60.9268 34.7738 61.21 34.9268C61.4932 35.0765 61.695 35.2848 61.8154 35.5518C61.9391 35.8187 62.001 36.2061 62.001 36.7139V40H61.1221V36.7139C61.1221 36.2744 61.026 35.9554 60.834 35.7568C60.6452 35.555 60.3766 35.4541 60.0283 35.4541C59.7679 35.4541 59.5221 35.5225 59.291 35.6592C59.0632 35.7926 58.9004 35.9749 58.8027 36.2061C58.7051 36.4372 58.6562 36.7562 58.6562 37.1631V40H57.7773ZM63.0166 37.4072C63.0166 36.4469 63.2835 35.7357 63.8174 35.2734C64.2633 34.8893 64.807 34.6973 65.4482 34.6973C66.1611 34.6973 66.7438 34.9316 67.1963 35.4004C67.6488 35.8659 67.875 36.5104 67.875 37.334C67.875 38.0013 67.7741 38.527 67.5723 38.9111C67.3737 39.292 67.0824 39.5882 66.6982 39.7998C66.3174 40.0114 65.9007 40.1172 65.4482 40.1172C64.7223 40.1172 64.1348 39.8844 63.6855 39.4189C63.2396 38.9535 63.0166 38.2829 63.0166 37.4072ZM63.9199 37.4072C63.9199 38.0713 64.0648 38.5693 64.3545 38.9014C64.6442 39.2301 65.0088 39.3945 65.4482 39.3945C65.8844 39.3945 66.2474 39.2285 66.5371 38.8965C66.8268 38.5645 66.9717 38.0583 66.9717 37.3779C66.9717 36.7367 66.8252 36.2516 66.5322 35.9229C66.2425 35.5908 65.8812 35.4248 65.4482 35.4248C65.0088 35.4248 64.6442 35.5892 64.3545 35.918C64.0648 36.2467 63.9199 36.7432 63.9199 37.4072ZM68.9102 41.9873V34.8145H69.7109V35.4883C69.8997 35.2246 70.113 35.0277 70.3506 34.8975C70.5882 34.764 70.8763 34.6973 71.2148 34.6973C71.6576 34.6973 72.0482 34.8112 72.3867 35.0391C72.7253 35.2669 72.9808 35.5892 73.1533 36.0059C73.3258 36.4193 73.4121 36.8734 73.4121 37.3682C73.4121 37.8988 73.3161 38.3773 73.124 38.8037C72.9352 39.2269 72.6585 39.5524 72.2939 39.7803C71.9326 40.0049 71.5518 40.1172 71.1514 40.1172C70.8584 40.1172 70.5947 40.0553 70.3604 39.9316C70.1292 39.8079 69.9388 39.6517 69.7891 39.4629V41.9873H68.9102ZM69.7061 37.4365C69.7061 38.1038 69.8411 38.597 70.1113 38.916C70.3815 39.235 70.7087 39.3945 71.0928 39.3945C71.4834 39.3945 71.8171 39.2301 72.0938 38.9014C72.3737 38.5693 72.5137 38.0566 72.5137 37.3633C72.5137 36.7025 72.377 36.2077 72.1035 35.8789C71.8333 35.5501 71.5094 35.3857 71.1318 35.3857C70.7575 35.3857 70.4255 35.5615 70.1357 35.9131C69.8493 36.2614 69.7061 36.7692 69.7061 37.4365Z" fill="#353535"/>
</svg>
